<svg width="24" height="24" viewBox="0 0 24 24" fill="none" xmlns="http://www.w3.org/2000/svg">
<g id="Filter">
<path id="Vector" d="M19.3247 2H4.67398C3.32489 2 2.20045 3.11101 2.53376 4.41737C2.88858 5.80173 3.54222 7.09161 4.44875 8.1964C5.35528 9.3012 6.49271 10.1941 7.78115 10.8124C8.78594 11.2934 9.55755 12.2384 9.55755 13.3519V20.7798C9.55766 20.9878 9.61092 21.1923 9.71229 21.374C9.81365 21.5557 9.95976 21.7084 10.1367 21.8178C10.3137 21.9271 10.5157 21.9894 10.7235 21.9988C10.9313 22.0081 11.1381 21.9642 11.3242 21.8712L13.766 20.6503C13.9687 20.549 14.1393 20.3933 14.2585 20.2005C14.3778 20.0077 14.441 19.7855 14.4411 19.5589V13.3519C14.4411 12.2384 15.2127 11.2934 16.2163 10.8124C17.5052 10.1945 18.6432 9.30169 19.5502 8.19688C20.4571 7.09206 21.1111 5.80199 21.4661 4.41737C21.797 3.11101 20.6713 2 19.3247 2Z" stroke="#0094FF" stroke-width="2"/>
</g>
</svg>
