<svg width="30" height="30" viewBox="0 0 30 30" fill="none"
  xmlns="http://www.w3.org/2000/svg">
  <g clip-path="url(#clip0_3698_1904)">
    <path d="M11.7112 15.4679L16.8333 20.8073C16.9565 20.9358 17.1062 21 17.2822 21C17.4582 21 17.6078 20.9358 17.731 20.8073L18.3119 20.2018C18.4351 20.0734 18.4967 19.9174 18.4967 19.7339C18.5143 19.5505 18.4615 19.3945 18.3383 19.2661L14.2459 15L18.3383 10.7339C18.4615 10.6055 18.5143 10.4495 18.4967 10.2661C18.4967 10.0826 18.4351 9.92661 18.3119 9.79817L17.731 9.19266C17.6078 9.06422 17.4582 9 17.2822 9C17.1062 9 16.9565 9.06422 16.8333 9.19266L11.7112 14.5321C11.5704 14.6606 11.5 14.8165 11.5 15C11.5 15.1835 11.5704 15.3395 11.7112 15.4679Z" fill="white"/>
  </g>
  <rect x="0.5" y="0.5" width="29" height="29" rx="14.5" stroke="white"/>
  <defs>
    <clipPath id="clip0_3698_1904">
      <rect width="30" height="30" rx="15" fill="white"/>
    </clipPath>
  </defs>
</svg>
  