<svg width="20" height="20" viewBox="0 0 20 20" fill="none"
    xmlns="http://www.w3.org/2000/svg">
    <path d="M19 16.1905V17.1429H1V16.1905L3 14.2857V8.57143C3 5.61905 5.03 3.01905 8 2.18095V1.90476C8 1.39959 8.21071 0.915104 8.58579 0.557891C8.96086 0.20068 9.46957 0 10 0C10.5304 0 11.0391 0.20068 11.4142 0.557891C11.7893 0.915104 12 1.39959 12 1.90476V2.18095C14.97 3.01905 17 5.61905 17 8.57143V14.2857L19 16.1905ZM12 18.0952C12 18.6004 11.7893 19.0849 11.4142 19.4421C11.0391 19.7993 10.5304 20 10 20C9.46957 20 8.96086 19.7993 8.58579 19.4421C8.21071 19.0849 8 18.6004 8 18.0952" fill="#FFC700"/>
</svg>
