<svg width="17" height="17" viewBox="0 0 17 17" fill="none"
  xmlns="http://www.w3.org/2000/svg">
  <path d="M11.4661 8.49992L15.8931 4.07284C16.1588 3.8072 16.2916 3.48256 16.2916 3.09887C16.2916 2.7152 16.1588 2.37578 15.8931 2.08064L14.9192 1.10669C14.6241 0.841063 14.2846 0.708252 13.901 0.708252C13.5173 0.708252 13.1926 0.841063 12.927 1.10669L8.49992 5.53378L4.07284 1.10669C3.8072 0.841063 3.48256 0.708252 3.09887 0.708252C2.7152 0.708252 2.37578 0.841063 2.08064 1.10669L1.10669 2.08064C0.841063 2.37578 0.708252 2.7152 0.708252 3.09887C0.708252 3.48256 0.841063 3.8072 1.10669 4.07284L5.53378 8.49992L1.10669 12.927C0.841063 13.1926 0.708252 13.5173 0.708252 13.901C0.708252 14.2846 0.841063 14.6241 1.10669 14.9192L2.08064 15.8931C2.37578 16.1588 2.7152 16.2916 3.09887 16.2916C3.48256 16.2916 3.8072 16.1588 4.07284 15.8931L8.49992 11.4661L12.927 15.8931C13.1926 16.1588 13.5173 16.2916 13.901 16.2916C14.2846 16.2916 14.6241 16.1588 14.9192 15.8931L15.8931 14.9192C16.1588 14.6241 16.2916 14.2846 16.2916 13.901C16.2916 13.5173 16.1588 13.1926 15.8931 12.927L11.4661 8.49992Z" fill="#797B83" />
</svg>
  