<svg width="24" height="24" viewBox="0 0 24 24" fill="none" xmlns="http://www.w3.org/2000/svg">
<g id="Eye Hide">
<path id="Vector" d="M22.0828 11.3953C21.2589 9.65947 20.2785 8.24385 19.1414 7.14838L17.9489 8.34088C18.9213 9.27018 19.7684 10.4859 20.5008 11.9999C18.5508 16.0359 15.7828 17.9531 12 17.9531C10.8645 17.9531 9.81869 17.7782 8.86244 17.4285L7.57033 18.7206C8.89845 19.3339 10.375 19.6406 12 19.6406C16.5047 19.6406 19.8656 17.2945 22.0828 12.6023C22.172 12.4136 22.2182 12.2075 22.2182 11.9988C22.2182 11.7901 22.172 11.584 22.0828 11.3953ZM20.5929 3.88025L19.5938 2.87994C19.5763 2.86251 19.5557 2.84868 19.5329 2.83924C19.5101 2.82981 19.4857 2.82495 19.4611 2.82495C19.4365 2.82495 19.4121 2.82981 19.3893 2.83924C19.3665 2.84868 19.3459 2.86251 19.3285 2.87994L16.7651 5.44213C15.3518 4.72025 13.7635 4.35932 12 4.35932C7.49533 4.35932 4.13439 6.70541 1.9172 11.3976C1.82808 11.5863 1.78186 11.7924 1.78186 12.0011C1.78186 12.2098 1.82808 12.4159 1.9172 12.6046C2.80298 14.4703 3.86939 15.9656 5.11642 17.0908L2.63626 19.5703C2.60113 19.6054 2.58139 19.6531 2.58139 19.7028C2.58139 19.7525 2.60113 19.8002 2.63626 19.8353L3.63681 20.8359C3.67197 20.871 3.71964 20.8908 3.76935 20.8908C3.81906 20.8908 3.86673 20.871 3.90189 20.8359L20.5929 4.14557C20.6103 4.12815 20.6242 4.10747 20.6336 4.08471C20.643 4.06195 20.6479 4.03755 20.6479 4.01291C20.6479 3.98827 20.643 3.96387 20.6336 3.94111C20.6242 3.91835 20.6103 3.89767 20.5929 3.88025ZM3.49923 11.9999C5.45158 7.96401 8.21954 6.04682 12 6.04682C13.2783 6.04682 14.4406 6.26619 15.495 6.71221L13.8474 8.35986C13.067 7.94353 12.1736 7.78901 11.2988 7.91911C10.424 8.04921 9.61413 8.45704 8.98874 9.08242C8.36336 9.70781 7.95553 10.5176 7.82543 11.3925C7.69533 12.2673 7.84985 13.1607 8.26618 13.941L6.31103 15.8962C5.22892 14.9411 4.29611 13.6471 3.49923 11.9999ZM9.28126 11.9999C9.28167 11.5867 9.37957 11.1793 9.56699 10.811C9.75442 10.4426 10.0261 10.1237 10.3599 9.88004C10.6938 9.63642 11.0804 9.47498 11.4883 9.40884C11.8963 9.3427 12.3141 9.37372 12.7078 9.4994L9.40572 12.8015C9.32295 12.5424 9.28096 12.272 9.28126 11.9999Z" fill="#8C9EB7"/>
<path id="Vector_2" d="M11.9063 14.6251C11.8252 14.6251 11.7453 14.6213 11.6661 14.614L10.4281 15.852C11.1727 16.1372 11.9839 16.2005 12.7638 16.0345C13.5436 15.8684 14.2586 15.48 14.8224 14.9162C15.3862 14.3524 15.7746 13.6373 15.9407 12.8575C16.1068 12.0777 16.0434 11.2664 15.7583 10.5219L14.5203 11.7598C14.5276 11.839 14.5313 11.919 14.5313 12.0001C14.5315 12.3448 14.4637 12.6863 14.3319 13.0048C14.2 13.3234 14.0067 13.6128 13.7629 13.8566C13.5191 14.1004 13.2296 14.2938 12.9111 14.4256C12.5925 14.5575 12.2511 14.6252 11.9063 14.6251Z" fill="#8C9EB7"/>
</g>
</svg>
