<svg width="24" height="24" viewBox="0 0 24 24" fill="none" xmlns="http://www.w3.org/2000/svg">
<g id="Wallet_alt">
<g id="Union">
<path d="M6 8C6 7.44772 6.44772 7 7 7H10C10.5523 7 11 7.44772 11 8C11 8.55229 10.5523 9 10 9H7C6.44772 9 6 8.55229 6 8Z" fill="#0094FF"/>
<path fill-rule="evenodd" clip-rule="evenodd" d="M9.67735 3H14.3227C15.8518 2.99997 17.1018 2.99994 18.0886 3.13473C19.1215 3.27579 20.0138 3.58105 20.7241 4.30269C21.4324 5.02215 21.7299 5.92217 21.8678 6.96387C22.0001 7.96325 22 9.23028 22 10.7862V13.2138C22 13.3907 22 13.5638 21.9998 13.7333C22 13.8035 22 13.8744 22 13.9456V14.0544C22 14.25 22.0001 14.4431 21.9956 14.6277C21.9863 15.558 21.9575 16.3586 21.8678 17.0361C21.7299 18.0778 21.4324 18.9779 20.7241 19.6973C20.0138 20.419 19.1215 20.7242 18.0886 20.8653C17.1018 21.0001 15.8519 21 14.3227 21H9.67731C8.14815 21 6.89824 21.0001 5.91139 20.8653C4.87854 20.7242 3.98623 20.419 3.27586 19.6973C2.56765 18.9779 2.27008 18.0778 2.13221 17.0361C1.99995 16.0368 1.99997 14.7697 2 13.2138V10.7862C1.99997 9.23031 1.99995 7.96325 2.13221 6.96387C2.27008 5.92217 2.56765 5.02214 3.27586 4.30269C3.98623 3.58105 4.87854 3.27579 5.91139 3.13473C6.89824 2.99994 8.14819 2.99997 9.67735 3ZM19.9997 13.7545C19.9992 14.0581 19.9981 14.3424 19.9954 14.6093C19.9917 14.7585 19.9848 14.8712 19.9723 14.964L19.9713 14.9713L19.964 14.9723C19.7738 14.9979 19.4997 15 19 15H17C16.5003 15 16.2262 14.9979 16.036 14.9723L16.0287 14.9713L16.0277 14.964C16.0021 14.7738 16 14.4997 16 14C16 13.5003 16.0021 13.2262 16.0277 13.036L16.0287 13.0287L16.036 13.0277C16.2262 13.0021 16.5003 13 17 13H19C19.4997 13 19.7738 13.0021 19.964 13.0277L19.9713 13.0287L19.9723 13.036C19.9933 13.1924 19.9985 13.4057 19.9997 13.7545ZM20 11.0218C19.7114 10.9999 19.3866 10.9999 19.0544 11H16.9456C16.5215 10.9999 16.1094 10.9998 15.7695 11.0455C15.3863 11.097 14.949 11.2226 14.5858 11.5858C14.2226 11.949 14.097 12.3863 14.0455 12.7695C13.9998 13.1094 13.9999 13.5215 14 13.9456V14.0544C13.9999 14.4785 13.9998 14.8906 14.0455 15.2305C14.097 15.6137 14.2226 16.051 14.5858 16.4142C14.949 16.7774 15.3863 16.9029 15.7695 16.9545C16.1094 17.0002 16.5215 17.0001 16.9456 17H19.0544C19.3314 17 19.6033 17.0001 19.8534 16.9874C19.7396 17.6724 19.5538 18.0352 19.2988 18.2943C19.0207 18.5768 18.6232 18.7737 17.818 18.8837C16.9823 18.9978 15.8697 19 14.25 19H9.75C8.13031 19 7.01771 18.9978 6.18203 18.8837C5.37677 18.7737 4.97932 18.5768 4.70117 18.2943C4.42087 18.0095 4.22419 17.5993 4.11492 16.7737C4.00206 15.921 4 14.7869 4 13.1429V10.8571C4 9.21306 4.00206 8.07905 4.11492 7.22627C4.22419 6.40067 4.42087 5.99048 4.70117 5.70573C4.97932 5.42316 5.37677 5.22631 6.18203 5.11633C7.01771 5.00219 8.13031 5 9.75 5H14.25C15.8697 5 16.9823 5.00219 17.818 5.11633C18.6232 5.22631 19.0207 5.42316 19.2988 5.70573C19.5791 5.99048 19.7758 6.40067 19.8851 7.22627C19.9979 8.07905 20 9.21306 20 10.8571V11.0218Z" fill="#0094FF"/>
</g>
</g>
</svg>
