<svg width="24" height="24" viewBox="0 0 24 24" fill="none" xmlns="http://www.w3.org/2000/svg">
<g id="megaphone-bold-svgrepo-com" clip-path="url(#clip0_1268_357053)">
<path id="Vector" d="M2.05593 14.9893C1.72283 13.7405 1.89869 12.4105 2.54493 11.2912C3.19117 10.1719 4.25502 9.35463 5.50308 9.01869L9.12194 8.04902C9.16768 8.03648 13.7261 6.73981 17.1047 1.91697C17.3093 1.62447 17.5931 1.39645 17.9228 1.25972C18.2525 1.12298 18.6144 1.0832 18.966 1.14506C19.3175 1.20692 19.6441 1.36785 19.9073 1.60893C20.1705 1.85001 20.3595 2.16122 20.4519 2.50598L24.229 16.6022C24.3235 16.9467 24.3167 17.311 24.2094 17.6517C24.102 17.9923 23.8987 18.2948 23.6238 18.5228C23.413 18.7006 23.1657 18.83 22.8995 18.9019C22.4742 19.0149 22.0227 18.9738 21.6248 18.7859C19.0956 17.6005 16.3119 17.0611 13.523 17.2162L14.2134 19.7929C14.3048 20.1291 14.3001 20.4843 14.1999 20.818C14.0997 21.1518 13.9079 21.4507 13.6464 21.681L12.1832 22.9786C11.9731 23.1648 11.7239 23.3015 11.4539 23.3786C11.1839 23.4557 10.9001 23.4711 10.6233 23.4238C10.3466 23.3765 10.084 23.2677 9.8549 23.1053C9.62584 22.9429 9.43617 22.7312 9.29989 22.4857L7.13582 18.5876C6.00266 18.6727 4.87529 18.3599 3.948 17.7031C3.02071 17.0463 2.35158 16.0865 2.05593 14.9893ZM21.8527 16.427L18.4816 3.84584C16.6393 6.28543 14.2325 8.24143 11.4678 9.54586L12.9286 14.9976C15.9751 14.7449 19.0375 15.2354 21.8527 16.427ZM11.0402 20.9849L11.9801 20.1514L11.2866 17.563L9.41837 18.0635L11.0402 20.9849ZM7.44422 16.2631L10.7042 15.3896L9.34542 10.3185L6.08542 11.192C5.41295 11.3722 4.8396 11.8122 4.49151 12.4151C4.14341 13.018 4.04908 13.7345 4.22927 14.407C4.40946 15.0795 4.8494 15.6528 5.45232 16.0009C6.05524 16.349 6.77175 16.4433 7.44422 16.2631Z" fill="#0094FF"/>
</g>
<defs>
<clipPath id="clip0_1268_357053">
<rect width="24" height="24" fill="white"/>
</clipPath>
</defs>
</svg>
