<svg width="24" height="24" viewBox="0 0 24 24" fill="none" xmlns="http://www.w3.org/2000/svg">
<g id="charm:menu-hamburger" clip-path="url(#clip0_454_434426)">
<path id="Vector (Stroke)" fill-rule="evenodd" clip-rule="evenodd" d="M3 6.375C3 5.75368 3.50368 5.25 4.125 5.25H15.875C16.4963 5.25 17 5.75368 17 6.375C17 6.99632 16.4963 7.5 15.875 7.5H4.125C3.50368 7.5 3 6.99632 3 6.375ZM3 12.375C3 11.7537 3.50368 11.25 4.125 11.25H11.875C12.4963 11.25 13 11.7537 13 12.375C13 12.9963 12.4963 13.5 11.875 13.5H4.125C3.50368 13.5 3 12.9963 3 12.375ZM3 18.375C3 17.7537 3.50368 17.25 4.125 17.25H15.875C16.4963 17.25 17 17.7537 17 18.375C17 18.9963 16.4963 19.5 15.875 19.5H4.125C3.50368 19.5 3 18.9963 3 18.375Z" fill="black"/>
<path id="Polygon 1" d="M23.2227 13.2293C23.6437 12.8343 23.6437 12.1657 23.2227 11.7707L19.6842 8.45095C19.0456 7.85184 18 8.30462 18 9.18023L18 15.8198C18 16.6954 19.0456 17.1482 19.6842 16.549L23.2227 13.2293Z" fill="black"/>
</g>
<defs>
<clipPath id="clip0_454_434426">
<rect width="24" height="24" fill="white"/>
</clipPath>
</defs>
</svg>
