<svg width="24" height="24" viewBox="0 0 24 24" fill="none" xmlns="http://www.w3.org/2000/svg">
<g id="Language" clip-path="url(#clip0_510_20982)">
<g id="Group">
<g id="Group_2">
<g id="Group_3">
<path id="Vector" d="M23.0368 12.3805C22.5236 12.3199 22.0583 12.6868 21.9976 13.2C21.7964 14.9026 21.1778 16.4643 20.2523 17.7888C19.5242 17.5321 18.708 17.3127 17.8272 17.1342C17.8753 16.9419 18.4696 14.8419 18.745 13.5671C18.8542 13.0619 18.5331 12.5639 18.028 12.4548C17.5229 12.3457 17.0248 12.6667 16.9157 13.1718C16.7368 13.8945 16.4211 15.4734 15.9733 16.831C14.996 16.7067 13.9678 16.6277 12.914 16.5983V11.9997C12.914 11.4829 12.495 11.0639 11.9782 11.0639H7.41331C7.47383 9.66794 7.66925 8.33267 7.98706 7.12044C8.62362 7.20158 9.28217 7.26373 9.95543 7.30526C9.97503 7.30648 9.99448 7.30709 10.0139 7.30709C10.5044 7.30709 10.9165 6.92506 10.9471 6.42884C10.9789 5.91298 10.5865 5.46903 10.0707 5.4373C9.56661 5.40622 9.07287 5.36305 8.59254 5.30877C8.69295 5.06778 8.79903 4.83439 8.91115 4.61014C9.77445 2.88351 10.8924 1.89323 11.9782 1.89323C12.4951 1.89323 12.914 1.47426 12.914 0.957417C12.914 0.440574 12.4951 0.0216064 11.9782 0.0216064C8.77873 0.0216064 5.77077 1.26759 3.50835 3.52991C1.24598 5.79228 0 8.80029 0 11.9998C0 15.1993 1.24598 18.2072 3.50831 20.4697C5.77068 22.732 8.77869 23.978 11.9782 23.978C18.0383 23.978 23.1448 19.4389 23.8563 13.4198C23.9169 12.9064 23.55 12.4412 23.0368 12.3805ZM7.78287 2.80602C7.592 3.10607 7.40956 3.42815 7.23706 3.7731C7.03977 4.16779 6.85855 4.5853 6.69346 5.02199C6.11497 4.91052 5.56939 4.78096 5.06469 4.63494C5.86096 3.8871 6.77783 3.26647 7.78287 2.80602ZM3.7259 6.17145C4.44566 6.42326 5.25664 6.64034 6.1341 6.81776C5.80227 8.13781 5.60005 9.57405 5.54019 11.0639H1.91531C2.08232 9.25348 2.72835 7.57976 3.7259 6.17145ZM1.91531 12.9355H5.54024C5.59939 14.4082 5.79777 15.8282 6.12275 17.1355C5.24268 17.3142 4.42715 17.5336 3.6997 17.7903C2.7172 16.3898 2.08082 14.7299 1.91531 12.9355ZM5.02518 19.3277C5.53785 19.177 6.09064 19.0443 6.67564 18.9308C6.84538 19.3845 7.03269 19.8176 7.23711 20.2264C7.40961 20.5714 7.59205 20.8934 7.78292 21.1935C6.76119 20.7254 5.83044 20.0921 5.02518 19.3277ZM11.0424 21.8673C10.2718 21.477 9.52672 20.6206 8.91111 19.3894C8.79162 19.1503 8.67875 18.9012 8.57253 18.6432C9.36462 18.5536 10.1929 18.4953 11.0424 18.4705V21.8673ZM11.0424 16.5983C9.98557 16.6278 8.9547 16.7071 7.97492 16.832C7.66433 15.6323 7.47303 14.3135 7.41331 12.9355H11.0424V16.5983ZM14.2963 20.6095C13.9592 21.0637 13.4862 21.5755 12.9139 21.8676V18.4704C13.7608 18.4951 14.5866 18.5533 15.3765 18.6424C15.0659 19.3988 14.703 20.0617 14.2963 20.6095ZM16.1613 21.1982C16.5838 20.5359 16.9571 19.7732 17.2731 18.9293C17.8601 19.043 18.4148 19.176 18.9292 19.3271C18.1203 20.096 17.1855 20.7305 16.1613 21.1982Z" fill="#8C9EB7"/>
</g>
</g>
</g>
<path id="Vector_2" d="M23.0947 4.02632C23.6528 4.02632 24.1053 3.57564 24.1053 3.01974C24.1053 2.46384 23.6528 2.01316 23.0947 2.01316H20.0632V1.00658C20.0632 0.450679 19.6107 0 19.0526 0C18.4946 0 18.0421 0.450679 18.0421 1.00658V2.01316H15.0105C14.4524 2.01316 14 2.46384 14 3.01974C14 3.57564 14.4524 4.02632 15.0105 4.02632H15.4133C15.6236 5.62792 16.3288 7.07659 17.3706 8.21462C16.6504 8.54055 15.8518 8.72368 15.0105 8.72368C14.4524 8.72368 14 9.17436 14 9.73026C14 10.2862 14.4524 10.7368 15.0105 10.7368C16.4907 10.7368 17.8751 10.3209 19.0526 9.60068C20.2302 10.3209 21.6145 10.7368 23.0947 10.7368C23.6528 10.7368 24.1053 10.2862 24.1053 9.73026C24.1053 9.17436 23.6528 8.72368 23.0947 8.72368C22.2535 8.72368 21.4549 8.54055 20.7347 8.21462C21.7765 7.07659 22.4817 5.62792 22.692 4.02632H23.0947ZM19.0526 7.05598C18.2396 6.2481 17.67 5.19844 17.4595 4.02632H20.6457C20.4352 5.19844 19.8656 6.24817 19.0526 7.05598Z" fill="#8C9EB7"/>
</g>
<defs>
<clipPath id="clip0_510_20982">
<rect width="24" height="24" fill="white"/>
</clipPath>
</defs>
</svg>
