<svg width="30" height="30" viewBox="0 0 30 30" fill="none"
  xmlns="http://www.w3.org/2000/svg">
  <path d="M15 10.3333C14.5584 10.3402 14.12 10.4104 13.6983 10.5417C13.8934 10.8847 13.9973 11.2721 14 11.6667C14 11.9731 13.9396 12.2765 13.8224 12.5596C13.7051 12.8427 13.5332 13.0999 13.3166 13.3166C13.0999 13.5333 12.8427 13.7051 12.5596 13.8224C12.2765 13.9397 11.9731 14 11.6667 14C11.272 13.9973 10.8847 13.8934 10.5417 13.6983C10.271 14.637 10.3025 15.637 10.6318 16.5568C10.9611 17.4765 11.5714 18.2694 12.3763 18.823C13.1812 19.3766 14.1399 19.6629 15.1166 19.6414C16.0932 19.6199 17.0384 19.2916 17.8181 18.7031C18.5979 18.1145 19.1727 17.2956 19.4611 16.3623C19.7496 15.4289 19.737 14.4285 19.4253 13.5026C19.1136 12.5768 18.5184 11.7725 17.7242 11.2037C16.93 10.6349 15.9769 10.3304 15 10.3333ZM26.855 14.3917C24.5954 9.98292 20.1221 7 15 7C9.87791 7 5.40332 9.98501 3.14498 14.3921C3.04966 14.5806 3 14.789 3 15.0002C3 15.2115 3.04966 15.4198 3.14498 15.6083C5.40457 20.0171 9.87791 23 15 23C20.1221 23 24.5967 20.015 26.855 15.6079C26.9503 15.4194 27 15.2111 27 14.9998C27 14.7885 26.9503 14.5802 26.855 14.3917ZM15 21C10.8896 21 7.12123 18.7084 5.08623 15C7.12123 11.2917 10.8892 9 15 9C19.1108 9 22.8788 11.2917 24.9138 15C22.8792 18.7084 19.1108 21 15 21Z" fill="#ABABAB"/>
</svg>
  