<svg width="30" height="30" viewBox="0 0 30 30" fill="none"
  xmlns="http://www.w3.org/2000/svg">
  <path d="M26.7746 23.0622L4.35033 5.53189C4.28882 5.48265 4.21822 5.446 4.14255 5.42404C4.06688 5.40208 3.98762 5.39524 3.90931 5.40391C3.831 5.41258 3.75516 5.43659 3.68613 5.47457C3.6171 5.51255 3.55622 5.56376 3.50698 5.62526L3.13199 6.09362C3.08263 6.15515 3.04588 6.22581 3.02386 6.30155C3.00184 6.37729 2.99496 6.45663 3.00364 6.53503C3.01231 6.61344 3.03636 6.68936 3.0744 6.75845C3.11245 6.82755 3.16375 6.88847 3.22536 6.93772L25.6497 24.4681C25.7112 24.5173 25.7818 24.554 25.8575 24.5759C25.9331 24.5979 26.0124 24.6047 26.0907 24.596C26.169 24.5874 26.2448 24.5634 26.3139 24.5254C26.3829 24.4874 26.4438 24.4362 26.493 24.3747L26.868 23.9063C26.9174 23.8448 26.9541 23.7741 26.9761 23.6984C26.9982 23.6227 27.005 23.5433 26.9964 23.4649C26.9877 23.3865 26.9636 23.3106 26.9256 23.2415C26.8876 23.1724 26.8363 23.1115 26.7746 23.0622ZM14.1297 10.8927L19.1841 14.8444C19.1009 12.5967 17.2679 10.8001 15 10.8001C14.7075 10.8007 14.4158 10.8317 14.1297 10.8927ZM15.8703 19.1076L10.8159 15.156C10.8995 17.4033 12.7324 19.1998 15 19.1998C15.2925 19.1992 15.5842 19.1683 15.8703 19.1076ZM15 9.60014C18.6993 9.60014 22.0907 11.6626 23.9221 15C23.4732 15.8213 22.9184 16.5803 22.2722 17.2574L23.6874 18.3636C24.4753 17.5207 25.1428 16.5729 25.671 15.5471C25.7568 15.3774 25.8015 15.1899 25.8015 14.9998C25.8015 14.8097 25.7568 14.6222 25.671 14.4525C23.6356 10.4847 19.6097 7.8002 15 7.8002C13.6238 7.8002 12.311 8.06269 11.0765 8.50555L12.8168 9.86638C13.527 9.70514 14.2545 9.60014 15 9.60014ZM15 20.3998C11.3007 20.3998 7.90972 18.3374 6.0779 15C6.52743 14.1786 7.08277 13.4198 7.72972 12.7429L6.31452 11.6367C5.52672 12.4795 4.85929 13.4272 4.3312 14.4529C4.24542 14.6226 4.20073 14.81 4.20073 15.0002C4.20073 15.1903 4.24542 15.3778 4.3312 15.5475C6.36476 19.5152 10.3906 22.1998 15 22.1998C16.3762 22.1998 17.689 21.9354 18.9235 21.4944L17.1832 20.1339C16.473 20.2948 15.7459 20.3998 15 20.3998Z" fill="#ABABAB"/>
</svg>
  