<svg width="24" height="24" viewBox="0 0 24 24" fill="none" xmlns="http://www.w3.org/2000/svg">
<g id="UI/Logout">
<g id="Group">
<g id="Group 1515">
<path id="Rectangle 449 (Stroke)" fill-rule="evenodd" clip-rule="evenodd" d="M1 6.31807C1 3.63016 3.17899 1.45117 5.8669 1.45117H10.3594C13.0473 1.45117 15.2263 3.63016 15.2263 6.31807V6.36212C15.2263 6.90943 14.7826 7.35311 14.2353 7.35311C13.688 7.35311 13.2443 6.90943 13.2443 6.36212V6.31807C13.2443 4.72478 11.9527 3.43317 10.3594 3.43317H5.8669C4.27361 3.43317 2.982 4.72478 2.982 6.31807V17.6815C2.982 19.2748 4.27361 20.5664 5.8669 20.5664H10.3594C11.9527 20.5664 13.2443 19.2748 13.2443 17.6815V17.6154C13.2443 17.0681 13.688 16.6244 14.2353 16.6244C14.7826 16.6244 15.2263 17.0681 15.2263 17.6154V17.6815C15.2263 20.3694 13.0473 22.5484 10.3594 22.5484H5.8669C3.17898 22.5484 1 20.3694 1 17.6815V6.31807Z" fill="#8C9EB7"/>
<path id="Rectangle 449 (Stroke)_2" d="M16.9469 7.29015C17.2898 6.83822 17.9075 6.77161 18.3266 7.14137L22.6407 10.9476C22.8691 11.1491 23.0012 11.4508 23.0003 11.7691C22.9994 12.0873 22.8656 12.3882 22.636 12.5882L18.3219 16.3474C17.9008 16.7144 17.2834 16.6438 16.9431 16.1896C16.6027 15.7354 16.6683 15.0697 17.0895 14.7027L19.2465 12.8231H8.14063C7.59913 12.8231 7.16016 12.3498 7.16016 11.7659C7.16016 11.1819 7.59913 10.7086 8.14063 10.7086H19.2731L17.0848 8.77795C16.6657 8.40819 16.604 7.74208 16.9469 7.29015Z" fill="#8C9EB7"/>
</g>
</g>
</g>
</svg>
