<svg xmlns="http://www.w3.org/2000/svg" width="25" height="24" viewBox="0 0 25 24" fill="none">
  <path d="M19.5003 20.0008H5.5003C5.23508 20.0008 4.98073 20.1062 4.79319 20.2937C4.60565 20.4813 4.5003 20.7356 4.5003 21.0008C4.5003 21.2661 4.60565 21.5204 4.79319 21.7079C4.98073 21.8955 5.23508 22.0008 5.5003 22.0008H19.5003C19.7655 22.0008 20.0199 21.8955 20.2074 21.7079C20.3949 21.5204 20.5003 21.2661 20.5003 21.0008C20.5003 20.7356 20.3949 20.4813 20.2074 20.2937C20.0199 20.1062 19.7655 20.0008 19.5003 20.0008ZM5.5003 18.0008H5.5903L9.7603 17.6208C10.2171 17.5753 10.6443 17.3741 10.9703 17.0508L19.9703 8.05083C20.3196 7.6818 20.5084 7.18934 20.4953 6.68137C20.4822 6.1734 20.2682 5.69134 19.9003 5.34083L17.1603 2.60083C16.8027 2.26493 16.3341 2.07219 15.8436 2.05929C15.3532 2.04638 14.8751 2.2142 14.5003 2.53083L5.5003 11.5308C5.17706 11.8568 4.9758 12.284 4.9303 12.7408L4.5003 16.9108C4.48683 17.0573 4.50583 17.2049 4.55596 17.3432C4.60608 17.4815 4.6861 17.607 4.7903 17.7108C4.88374 17.8035 4.99455 17.8768 5.11639 17.9266C5.23823 17.9764 5.36869 18.0016 5.5003 18.0008ZM15.7703 4.00083L18.5003 6.73083L16.5003 8.68083L13.8203 6.00083L15.7703 4.00083ZM6.8703 12.9108L12.5003 7.32083L15.2003 10.0208L9.6003 15.6208L6.6003 15.9008L6.8703 12.9108Z" fill="#0094FF"/>
</svg>