<svg width="24" height="24" viewBox="0 0 24 24" fill="none" xmlns="http://www.w3.org/2000/svg">
<g id="Excel" clip-path="url(#clip0_3617_3179)">
<g id="Group">
<g id="Group_2">
<path id="Vector" d="M17.25 24H2.75C1.233 24 0 22.767 0 21.25V2.75C0 1.233 1.233 0 2.75 0H10.59C11.004 0 11.34 0.336 11.34 0.75C11.34 1.164 11.004 1.5 10.59 1.5H2.75C2.061 1.5 1.5 2.061 1.5 2.75V21.25C1.5 21.939 2.061 22.5 2.75 22.5H17.25C17.939 22.5 18.5 21.939 18.5 21.25V15.33C18.5 14.916 18.836 14.58 19.25 14.58C19.664 14.58 20 14.916 20 15.33V21.25C20 22.767 18.767 24 17.25 24Z" fill="#0094FF"/>
<path id="Vector_2" d="M17.5 13C13.916 13 11 10.084 11 6.5C11 2.916 13.916 0 17.5 0C21.084 0 24 2.916 24 6.5C24 10.084 21.084 13 17.5 13ZM17.5 1.5C14.743 1.5 12.5 3.743 12.5 6.5C12.5 9.257 14.743 11.5 17.5 11.5C20.257 11.5 22.5 9.257 22.5 6.5C22.5 3.743 20.257 1.5 17.5 1.5Z" fill="#0094FF"/>
<path id="Vector_3" d="M16.4998 9.24983C16.3008 9.24983 16.1098 9.17083 15.9698 9.02983L13.9698 7.02983C13.6767 6.73683 13.6767 6.26183 13.9698 5.96883C14.2628 5.67583 14.7378 5.67583 15.0308 5.96883L16.4638 7.40183L19.4358 4.00583C19.7078 3.69483 20.1828 3.66283 20.4938 3.93483C20.8058 4.20783 20.8378 4.68183 20.5648 4.99283L17.0648 8.99283C16.9278 9.14883 16.7327 9.24183 16.5247 9.24883C16.5167 9.24983 16.5078 9.24983 16.4998 9.24983Z" fill="#0094FF"/>
</g>
<g id="XLS">
<path d="M3.04493 21.034C2.99965 21.034 2.9594 21.0168 2.92419 20.9825C2.894 20.9425 2.87891 20.8997 2.87891 20.854C2.87891 20.8368 2.88142 20.8197 2.88645 20.8025C2.89148 20.7854 2.89903 20.7683 2.90909 20.7511L4.55428 17.974L3.02984 15.3168C3.01475 15.2825 3.0072 15.2483 3.0072 15.214C3.0072 15.1683 3.02229 15.1283 3.05248 15.094C3.08267 15.054 3.1204 15.034 3.16568 15.034H4.25996C4.33543 15.034 4.39328 15.0568 4.43353 15.1025C4.47378 15.1425 4.50145 15.1797 4.51655 15.214L5.42216 16.774L6.33531 15.214C6.35544 15.1797 6.38562 15.1425 6.42587 15.1025C6.46612 15.0568 6.52398 15.034 6.59945 15.034H7.63335C7.67863 15.034 7.71637 15.054 7.74655 15.094C7.78177 15.1283 7.79938 15.1683 7.79938 15.214C7.79938 15.254 7.78932 15.2883 7.76919 15.3168L6.2372 17.9654L7.89749 20.7511C7.90755 20.7683 7.91258 20.7854 7.91258 20.8025C7.91761 20.8197 7.92013 20.8368 7.92013 20.854C7.92013 20.8997 7.90503 20.9425 7.87485 20.9825C7.84466 21.0168 7.80693 21.034 7.76165 21.034H6.63718C6.56171 21.034 6.50134 21.014 6.45606 20.974C6.41581 20.9283 6.38814 20.8911 6.37305 20.8625L5.36933 19.2168L4.38825 20.8625C4.37316 20.8911 4.34549 20.9283 4.30524 20.974C4.26499 21.014 4.20713 21.034 4.13166 21.034H3.04493Z" fill="#0094FF"/>
<path d="M8.72332 21.034C8.66798 21.034 8.6227 21.014 8.58748 20.974C8.55226 20.934 8.53466 20.8825 8.53466 20.8197V15.2483C8.53466 15.1854 8.55226 15.134 8.58748 15.094C8.6227 15.054 8.66798 15.034 8.72332 15.034H9.71949C9.7698 15.034 9.81257 15.054 9.84779 15.094C9.88804 15.134 9.90816 15.1854 9.90816 15.2483V19.7397H12.1873C12.2426 19.7397 12.2879 19.7625 12.3231 19.8083C12.3634 19.8483 12.3835 19.8997 12.3835 19.9625V20.8197C12.3835 20.8825 12.3634 20.934 12.3231 20.974C12.2879 21.014 12.2426 21.034 12.1873 21.034H8.72332Z" fill="#0094FF"/>
<path d="M15.0073 21.1197C14.5042 21.1197 14.0866 21.0397 13.7546 20.8797C13.4225 20.714 13.171 20.4997 12.9999 20.2368C12.8288 19.974 12.7383 19.694 12.7282 19.3968C12.7282 19.3511 12.7433 19.3111 12.7735 19.2768C12.8087 19.2368 12.849 19.2168 12.8943 19.2168H13.8451C13.9156 19.2168 13.9684 19.2311 14.0036 19.2597C14.0439 19.2883 14.0791 19.3254 14.1093 19.3711C14.1495 19.4568 14.2049 19.5397 14.2753 19.6197C14.3508 19.6997 14.4464 19.7654 14.5621 19.8168C14.6828 19.8625 14.8312 19.8854 15.0073 19.8854C15.2991 19.8854 15.518 19.834 15.6639 19.7311C15.8148 19.6283 15.8903 19.4883 15.8903 19.3111C15.8903 19.1854 15.8501 19.0825 15.7696 19.0025C15.6891 18.9168 15.5583 18.8425 15.3771 18.7797C15.201 18.7111 14.9646 18.6425 14.6677 18.574C14.2854 18.4825 13.9583 18.3654 13.6867 18.2225C13.42 18.074 13.2162 17.8825 13.0754 17.6483C12.9345 17.4083 12.8641 17.1111 12.8641 16.7568C12.8641 16.4083 12.9496 16.0968 13.1207 15.8225C13.2967 15.5483 13.5408 15.334 13.8527 15.1797C14.1646 15.0254 14.5344 14.9483 14.9621 14.9483C15.3092 14.9483 15.6136 14.9997 15.8752 15.1025C16.1419 15.2054 16.3658 15.3425 16.5469 15.514C16.728 15.6854 16.8638 15.8683 16.9544 16.0625C17.05 16.2511 17.1003 16.4368 17.1053 16.6197C17.1053 16.6654 17.0902 16.7083 17.0601 16.7483C17.0299 16.7825 16.9921 16.7997 16.9468 16.7997H15.9507C15.8953 16.7997 15.8475 16.7883 15.8073 16.7654C15.767 16.7425 15.7318 16.7054 15.7016 16.654C15.6715 16.5283 15.591 16.4197 15.4601 16.3283C15.3344 16.2311 15.1683 16.1825 14.9621 16.1825C14.7407 16.1825 14.5671 16.2283 14.4413 16.3197C14.3206 16.4054 14.2602 16.5397 14.2602 16.7225C14.2602 16.8368 14.2929 16.9368 14.3583 17.0225C14.4288 17.1083 14.542 17.1825 14.6979 17.2454C14.8589 17.3083 15.0778 17.374 15.3545 17.4425C15.8123 17.5397 16.1821 17.6625 16.4639 17.8111C16.7456 17.954 16.9519 18.1425 17.0827 18.3768C17.2135 18.6054 17.2789 18.894 17.2789 19.2425C17.2789 19.6311 17.1808 19.9683 16.9846 20.254C16.7934 20.534 16.5267 20.7483 16.1846 20.8968C15.8425 21.0454 15.4501 21.1197 15.0073 21.1197Z" fill="#0094FF"/>
</g>
</g>
</g>
<defs>
<clipPath id="clip0_3617_3179">
<rect width="24" height="24" fill="white"/>
</clipPath>
</defs>
</svg>
