<svg width="30" height="30" viewBox="0 0 30 30" fill="none" xmlns="http://www.w3.org/2000/svg">
<g id="layout-masonry-line">
<g id="Union">
<path fill-rule="evenodd" clip-rule="evenodd" d="M25.0226 15.5643C25.1046 15.5532 25.1888 15.5582 25.2702 15.5799C25.4318 15.6231 25.5696 15.7287 25.6534 15.8735L26.915 18.056C27.0891 18.3563 26.985 18.7442 26.6847 18.9177L25.8193 19.4179C25.8878 19.883 25.8882 20.3556 25.8206 20.8208L26.686 21.321C26.8303 21.4052 26.9354 21.543 26.9785 21.7044C27.0217 21.8658 26.9993 22.0377 26.9163 22.1826L25.6547 24.3652C25.554 24.539 25.3814 24.6471 25.1954 24.6732C25.0607 24.6922 24.9191 24.6683 24.7927 24.5955L23.9123 24.0871C23.5476 24.3741 23.1455 24.6101 22.7171 24.7885V25.7965C22.7171 25.9638 22.6506 26.1242 22.5323 26.2425C22.414 26.3608 22.2536 26.4272 22.0863 26.4272H19.5631C19.3958 26.4272 19.2354 26.3608 19.1171 26.2425C18.9988 26.1242 18.9323 25.9638 18.9323 25.7965V24.7885C18.9051 24.7771 18.8779 24.7656 18.8508 24.7538C18.4556 24.5813 18.0791 24.3569 17.7367 24.0871L16.8564 24.5954C16.7856 24.6363 16.7084 24.6627 16.629 24.6739C16.5458 24.6857 16.4603 24.6809 16.3776 24.6588C16.216 24.6156 16.0782 24.51 15.9944 24.3652L14.7328 22.1827C14.5587 21.8824 14.6628 21.4945 14.9631 21.321L15.8285 20.8208C15.7605 20.3557 15.7605 19.8831 15.8285 19.4179L14.9631 18.9177C14.8188 18.8335 14.7137 18.6957 14.6705 18.5343C14.6274 18.3729 14.6498 18.201 14.7328 18.056L15.9558 15.9402L15.9947 15.8735C16.0361 15.8017 16.0913 15.7388 16.157 15.6884C16.2227 15.638 16.2978 15.6011 16.3778 15.5797C16.4578 15.5583 16.5413 15.5529 16.6234 15.5638C16.7055 15.5747 16.7847 15.6017 16.8564 15.6432L17.7363 16.1516C18.101 15.8646 18.5032 15.6286 18.9317 15.4502V14.4422C18.9317 14.2749 18.9981 14.1144 19.1164 13.9961C19.2347 13.8779 19.3952 13.8114 19.5625 13.8114H22.0856C22.2529 13.8114 22.4134 13.8779 22.5317 13.9961C22.65 14.1144 22.7164 14.2749 22.7164 14.4422V15.4502C23.1449 15.6282 23.5469 15.8642 23.9112 16.1516L24.7914 15.6433C24.8633 15.6017 24.9419 15.5752 25.0226 15.5643ZM21.9026 22.4003C22.7559 21.9952 23.3472 21.1252 23.3472 20.1193C23.3472 18.7278 22.2156 17.5962 20.8241 17.5962C19.4325 17.5962 18.3009 18.7278 18.3009 20.1193C18.3009 21.5108 19.4325 22.6425 20.8241 22.6425C20.9123 22.6425 20.9995 22.638 21.0854 22.6291C21.1402 22.6234 21.1945 22.616 21.2483 22.6068C21.4784 22.5677 21.6981 22.4973 21.9026 22.4003Z" fill="url(#paint0_linear_1807_43111)"/>
<path fill-rule="evenodd" clip-rule="evenodd" d="M26.5561 4.74902V14.5C26.3052 14.2848 26.0071 14.1261 25.6816 14.0392C25.2176 13.9152 24.7289 13.9453 24.2876 14.1201C24.2691 13.9939 24.2399 13.8699 24.2005 13.7495V12.9863H23.7687C23.7337 12.9458 23.6972 12.9065 23.6591 12.8685C23.2417 12.4511 22.6756 12.2166 22.0853 12.2166H19.5622C18.9719 12.2166 18.4058 12.4511 17.9884 12.8685C17.9503 12.9065 17.9138 12.9458 17.8788 12.9863H15.9558V14.0416C15.677 14.1175 15.4156 14.247 15.1862 14.4229C14.9543 14.6007 14.7598 14.8224 14.6136 15.0754L13.3504 17.2607L13.3489 17.2634C13.2702 17.4007 13.2071 17.5448 13.1597 17.6933H5.35561V22.4003H13.1175C13.1666 22.5992 13.2443 22.7946 13.352 22.9808L14.3769 24.7538H4.1778C3.86543 24.7538 3.56585 24.6298 3.34497 24.4091C3.12409 24.1884 3 23.8891 3 23.577V4.74902C3 4.43692 3.12409 4.13761 3.34497 3.91693C3.56585 3.69624 3.86543 3.57227 4.1778 3.57227H25.3783C25.6906 3.57227 25.9902 3.69624 26.2111 3.91693C26.432 4.13761 26.5561 4.43692 26.5561 4.74902ZM13.6002 5.92576H5.35561V15.3398H13.6002V5.92576ZM24.2005 5.92576H15.9558V10.6328H24.2005V5.92576Z" fill="url(#paint1_linear_1807_43111)"/>
<path d="M13.6002 20.4052V19.832C13.691 19.9365 13.7916 20.0326 13.9009 20.119C13.7905 20.2059 13.6902 20.3018 13.6002 20.4052Z" fill="url(#paint2_linear_1807_43111)"/>
</g>
</g>
<defs>
<linearGradient id="paint0_linear_1807_43111" x1="21.2444" y1="32.8545" x2="-0.940793" y2="11.5082" gradientUnits="userSpaceOnUse">
<stop stop-color="#0094FF"/>
<stop offset="1" stop-color="#00D1FF"/>
</linearGradient>
<linearGradient id="paint1_linear_1807_43111" x1="21.2444" y1="32.8545" x2="-0.940793" y2="11.5082" gradientUnits="userSpaceOnUse">
<stop stop-color="#0094FF"/>
<stop offset="1" stop-color="#00D1FF"/>
</linearGradient>
<linearGradient id="paint2_linear_1807_43111" x1="21.2444" y1="32.8545" x2="-0.940793" y2="11.5082" gradientUnits="userSpaceOnUse">
<stop stop-color="#0094FF"/>
<stop offset="1" stop-color="#00D1FF"/>
</linearGradient>
</defs>
</svg>
