<svg width="25" height="24" viewBox="0 0 25 24" fill="none" xmlns="http://www.w3.org/2000/svg">
<g id="Arrow Update" clip-path="url(#clip0_1835_6773)">
<g id="Union">
<path d="M16.0596 2.48363C14.2873 1.91145 12.3903 1.84558 10.5826 2.29346C8.77479 2.74133 7.12802 3.68515 5.82777 5.01856C4.52753 6.35198 3.6255 8.02201 3.2233 9.84049C3.19512 9.96793 3.18833 10.0951 3.20054 10.2183H1.54325C1.23192 10.2183 0.987305 10.474 0.987305 10.7798C0.987305 10.891 1.02066 11.0022 1.08737 11.0911L3.65583 14.8104C3.76146 14.9605 3.92824 15.0495 4.1117 15.0495C4.29516 15.0495 4.46751 14.9605 4.56758 14.8104L7.13047 11.0911C7.24722 10.9244 7.25834 10.702 7.16383 10.5185C7.06932 10.3351 6.8803 10.2183 6.66904 10.2183H5.59914C5.91928 8.89079 6.59146 7.67308 7.54607 6.69411C8.53426 5.68072 9.78581 4.96342 11.1597 4.62303C12.5336 4.28265 13.9753 4.33271 15.3223 4.76757C16.6693 5.20243 17.868 6.00481 18.7836 7.0843C19.2122 7.58975 19.9695 7.65199 20.4749 7.22333C20.9804 6.79466 21.0426 6.03742 20.6139 5.53197C19.4093 4.11158 17.832 3.05582 16.0596 2.48363Z" fill="#0094FF"/>
<path d="M24.8872 12.9089L22.3299 9.17852C22.2243 9.02842 22.0575 8.93947 21.874 8.93947C21.6906 8.93947 21.5182 9.02842 21.4181 9.17852L18.8553 12.8978C18.6829 13.1535 18.7441 13.4982 18.9998 13.6761C19.0943 13.7372 19.1999 13.7762 19.3111 13.7762H20.3769C20.0573 15.1059 19.3845 16.3256 18.4286 17.3059C17.4404 18.3193 16.1888 19.0366 14.8149 19.377C13.441 19.7174 11.9994 19.6673 10.6524 19.2325C9.30539 18.7976 8.10661 17.9952 7.19109 16.9157C6.76243 16.4103 6.00518 16.348 5.49974 16.7767C4.99429 17.2054 4.93205 17.9626 5.36071 18.4681C6.56534 19.8885 8.14269 20.9442 9.91504 21.5164C11.6874 22.0886 13.5843 22.1545 15.3921 21.7066C17.1999 21.2587 18.8466 20.3149 20.1469 18.9815C21.4471 17.6481 22.3492 15.978 22.7514 14.1595C22.7795 14.0321 22.7863 13.9049 22.7741 13.7817H24.4314C24.7427 13.7817 24.9873 13.526 24.9873 13.2202C24.9873 13.109 24.9539 12.9978 24.8872 12.9089Z" fill="#0094FF"/>
</g>
</g>
<defs>
<clipPath id="clip0_1835_6773">
<rect width="24" height="24" fill="white" transform="translate(0.987305)"/>
</clipPath>
</defs>
</svg>
