<svg width="24" height="24" viewBox="0 0 24 24" fill="none" xmlns="http://www.w3.org/2000/svg">
<g id="Calendar">
<path id="coolicon" d="M20.4 24H3.59995C2.27447 24 1.19995 22.9255 1.19995 21.6V4.8C1.19995 3.47452 2.27447 2.4 3.59995 2.4H5.99995V0H8.39995V2.4H15.6V0H18V2.4H20.4C21.7254 2.4 22.8 3.47452 22.8 4.8V21.6C22.8 22.9255 21.7254 24 20.4 24ZM3.59995 9.6V21.6H20.4V9.6H3.59995ZM3.59995 4.8V7.2H20.4V4.8H3.59995ZM18 19.2H15.6V16.8H18V19.2ZM13.2 19.2H10.8V16.8H13.2V19.2ZM8.39995 19.2H5.99995V16.8H8.39995V19.2ZM18 14.4H15.6V12H18V14.4ZM13.2 14.4H10.8V12H13.2V14.4ZM8.39995 14.4H5.99995V12H8.39995V14.4Z" fill="#8C9EB7"/>
</g>
</svg>
