<svg width="13" height="14" viewBox="0 0 13 14" fill="none"
  xmlns="http://www.w3.org/2000/svg">
  <g clip-path="url(#clip0_6_7474)">
    <path d="M12.8812 10.9437L8.93736 6.9998L12.8812 3.05593C12.9568 2.97943 12.9992 2.87624 12.9992 2.76871C12.9992 2.66118 12.9568 2.55799 12.8812 2.48149L11.0182 0.618428C10.9805 0.58062 10.9357 0.550621 10.8865 0.530152C10.8372 0.509682 10.7843 0.499146 10.731 0.499146C10.6776 0.499146 10.6247 0.509682 10.5755 0.530152C10.5262 0.550621 10.4814 0.58062 10.4437 0.618428L6.49986 4.5623L2.55599 0.618428C2.47981 0.542267 2.37649 0.499483 2.26877 0.499483C2.16105 0.499483 2.05773 0.542267 1.98155 0.618428L0.118489 2.48149C0.0806808 2.51916 0.0506819 2.56392 0.0302127 2.61321C0.00974339 2.6625 -0.000793457 2.71534 -0.000793457 2.76871C-0.000793457 2.82208 0.00974339 2.87492 0.0302127 2.92421C0.0506819 2.9735 0.0806808 3.01826 0.118489 3.05593L4.06236 6.9998L0.118489 10.9437C0.0423284 11.0199 -0.000455929 11.1232 -0.000455929 11.2309C-0.000455929 11.3386 0.0423284 11.4419 0.118489 11.5181L1.98155 13.3812C2.01922 13.419 2.06398 13.449 2.11327 13.4695C2.16256 13.4899 2.2154 13.5005 2.26877 13.5005C2.32214 13.5005 2.37498 13.4899 2.42427 13.4695C2.47356 13.449 2.51832 13.419 2.55599 13.3812L6.49986 9.4373L10.4437 13.3812C10.5199 13.4573 10.6232 13.5001 10.731 13.5001C10.8387 13.5001 10.942 13.4573 11.0182 13.3812L12.8812 11.5181C12.919 11.4804 12.949 11.4357 12.9695 11.3864C12.99 11.3371 13.0005 11.2843 13.0005 11.2309C13.0005 11.1775 12.99 11.1247 12.9695 11.0754C12.949 11.0261 12.919 10.9813 12.8812 10.9437Z" fill="#4E5667"/>
  </g>
  <defs>
    <clipPath id="clip0_6_7474">
      <rect width="13" height="13" fill="white" transform="translate(0 0.5)"/>
    </clipPath>
  </defs>
</svg>
