<svg width="24" height="24" viewBox="0 0 24 24" fill="none" xmlns="http://www.w3.org/2000/svg">
<path d="M8.15711 6.56666C8.15711 5.7327 8.83316 5.05664 9.66712 5.05664H18.49C19.3239 5.05664 20 5.7327 20 6.56666C20 7.40062 19.3239 8.07668 18.49 8.07668H9.66712C8.83316 8.07668 8.15711 7.40062 8.15711 6.56666ZM8.15711 12.0003C8.15711 11.1663 8.83316 10.4903 9.66712 10.4903H18.49C19.3239 10.4903 20 11.1663 20 12.0003C20 12.8343 19.3239 13.5103 18.49 13.5103H9.66712C8.83316 13.5103 8.15711 12.8343 8.15711 12.0003ZM8.15711 17.4345C8.15711 16.6005 8.83316 15.9245 9.66712 15.9245H18.49C19.3239 15.9245 20 16.6005 20 17.4345C20 18.2685 19.3239 18.9445 18.49 18.9445H9.66712C8.83316 18.9445 8.15711 18.2685 8.15711 17.4345ZM4 6.56666C4 5.7327 4.67606 5.05664 5.51002 5.05664C6.34398 5.05664 7.02004 5.7327 7.02004 6.56666C7.02004 7.40062 6.34398 8.07668 5.51002 8.07668C4.67606 8.07668 4 7.40062 4 6.56666ZM4 12.0003C4 11.1663 4.67606 10.4903 5.51002 10.4903C6.34398 10.4903 7.02004 11.1663 7.02004 12.0003C7.02004 12.8343 6.34398 13.5103 5.51002 13.5103C4.67606 13.5103 4 12.8343 4 12.0003ZM4 17.4345C4 16.6005 4.67606 15.9245 5.51002 15.9245C6.34398 15.9245 7.02004 16.6005 7.02004 17.4345C7.02004 18.2685 6.34398 18.9445 5.51002 18.9445C4.67606 18.9445 4 18.2685 4 17.4345Z" fill="#0094FF"/>
</svg>
