<svg xmlns="http://www.w3.org/2000/svg" width="24" height="25" viewBox="0 0 24 25" fill="none">
  <path d="M13.1252 7.99998V11.8531L16.4627 13.775C16.7195 13.9258 16.9067 14.1716 16.9839 14.4592C17.0611 14.7469 17.022 15.0534 16.8752 15.3125C16.775 15.4824 16.6325 15.6234 16.4617 15.722C16.2908 15.8205 16.0974 15.8732 15.9002 15.875C15.7026 15.8766 15.5083 15.8247 15.3377 15.725L11.4377 13.475L11.4096 13.4562L11.3533 13.4187L11.3158 13.3906L11.2689 13.3531L11.2221 13.3156L11.1939 13.2781L11.1471 13.2312L11.1189 13.2031L11.0814 13.1469L11.0533 13.1094L11.0252 13.0625L10.9971 13.0156L10.9783 12.9687L10.9502 12.9125C10.9502 12.8937 10.9408 12.8844 10.9408 12.8656C10.9304 12.8485 10.9239 12.8293 10.9221 12.8094L10.9033 12.7625C10.9033 12.7437 10.8939 12.725 10.8939 12.7062C10.8939 12.6875 10.8846 12.6687 10.8846 12.65V12.5937C10.8763 12.5729 10.873 12.5504 10.8752 12.5281V7.99998C10.8752 7.70161 10.9937 7.41547 11.2047 7.20449C11.4157 6.99351 11.7018 6.87498 12.0002 6.87498C12.2986 6.87498 12.5847 6.99351 12.7957 7.20449C13.0067 7.41547 13.1252 7.70161 13.1252 7.99998ZM18.6283 5.87186C16.869 4.11661 14.4853 3.13086 12.0002 3.13086C9.51504 3.13086 7.13136 4.11661 5.37207 5.87186L4.10645 7.12811V6.09686C4.10645 5.94912 4.07735 5.80283 4.02081 5.66634C3.96427 5.52985 3.88141 5.40583 3.77694 5.30136C3.67247 5.1969 3.54846 5.11403 3.41196 5.05749C3.27547 5.00096 3.12918 4.97186 2.98145 4.97186C2.83371 4.97186 2.68742 5.00096 2.55093 5.05749C2.41444 5.11403 2.29042 5.1969 2.18595 5.30136C2.08148 5.40583 1.99862 5.52985 1.94208 5.66634C1.88554 5.80283 1.85645 5.94912 1.85645 6.09686V9.84686C1.85645 9.88436 1.86582 9.92186 1.86582 9.95936C1.86436 9.97556 1.86762 9.99184 1.8752 10.0062C1.8744 10.0285 1.87757 10.0507 1.88457 10.0719C1.88457 10.0906 1.89395 10.1094 1.89395 10.1281C1.89395 10.1469 1.90332 10.1562 1.9127 10.175C1.92207 10.1937 1.92207 10.2125 1.92207 10.2312C1.93355 10.2442 1.94018 10.2608 1.94082 10.2781L1.96895 10.325L1.99707 10.3812L2.01582 10.4281L2.05332 10.475L2.08145 10.5219C2.09082 10.5312 2.1002 10.55 2.11895 10.5594L2.18457 10.6437H2.19395L2.26895 10.7187L2.31582 10.7469L2.3627 10.7844L2.40957 10.8125L2.45645 10.8406L2.50332 10.8687L2.5502 10.8875L2.60645 10.9062L2.65332 10.925H2.70957L2.76582 10.9437H6.73145C7.02981 10.9437 7.31596 10.8252 7.52694 10.6142C7.73792 10.4032 7.85645 10.1171 7.85645 9.81873C7.85645 9.52036 7.73792 9.23422 7.52694 9.02324C7.31596 8.81226 7.02981 8.69373 6.73145 8.69373H5.7002L6.96582 7.46561C7.96185 6.4681 9.23138 5.78845 10.6138 5.51267C11.9962 5.23688 13.4293 5.37736 14.7319 5.91632C16.0344 6.45529 17.1478 7.36851 17.9312 8.54044C18.7146 9.71237 19.1327 11.0903 19.1327 12.5C19.1327 13.9096 18.7146 15.2876 17.9312 16.4595C17.1478 17.6315 16.0344 18.5447 14.7319 19.0836C13.4293 19.6226 11.9962 19.7631 10.6138 19.4873C9.23138 19.2115 7.96185 18.5319 6.96582 17.5344C6.75236 17.327 6.46651 17.2111 6.16895 17.2111C5.87138 17.2111 5.58553 17.327 5.37207 17.5344C5.26719 17.6389 5.18397 17.7631 5.12719 17.8998C5.07041 18.0366 5.04118 18.1832 5.04118 18.3312C5.04118 18.4793 5.07041 18.6259 5.12719 18.7627C5.18397 18.8994 5.26719 19.0236 5.37207 19.1281C7.14022 20.8358 9.50836 21.7808 11.9665 21.7594C14.4246 21.7381 16.7759 20.7521 18.5141 19.0139C20.2523 17.2757 21.2383 14.9243 21.2596 12.4662C21.281 10.0081 20.3361 7.64 18.6283 5.87186Z" fill="#0094FF"/>
</svg>