<svg xmlns="http://www.w3.org/2000/svg" width="24" height="24" viewBox="0 0 24 24" fill="none">
  <path d="M16.069 14.7562C16.1757 14.8589 16.2611 14.9816 16.3203 15.1174C16.3795 15.2531 16.4114 15.3992 16.414 15.5473C16.4166 15.6954 16.39 15.8425 16.3356 15.9802C16.2812 16.118 16.2001 16.2436 16.0971 16.35C15.9944 16.4567 15.8717 16.5422 15.736 16.6014C15.6002 16.6606 15.4541 16.6924 15.3061 16.695C15.158 16.6976 15.0108 16.671 14.8731 16.6166C14.7354 16.5622 14.6097 16.4812 14.5033 16.3781C13.8286 15.7351 12.9323 15.3763 12.0002 15.3763C11.0681 15.3763 10.1718 15.7351 9.49709 16.3781C9.39059 16.4809 9.26489 16.5617 9.12717 16.616C8.98944 16.6702 8.84238 16.6967 8.69439 16.6941C8.54639 16.6915 8.40036 16.6598 8.26464 16.6007C8.12891 16.5417 8.00614 16.4565 7.90334 16.35C7.80054 16.2435 7.71972 16.1178 7.6655 15.9801C7.61128 15.8424 7.58471 15.6953 7.58732 15.5473C7.5926 15.2484 7.71639 14.9639 7.93146 14.7562C9.02704 13.7087 10.4844 13.1241 12.0002 13.1241C13.516 13.1241 14.9734 13.7087 16.069 14.7562ZM20.344 7.5L21.7971 6.04687C22.0084 5.83553 22.1272 5.54888 22.1272 5.25C22.1272 4.95111 22.0084 4.66447 21.7971 4.45312C21.5857 4.24178 21.2991 4.12305 21.0002 4.12305C20.7013 4.12305 20.4147 4.24178 20.2033 4.45312L18.7502 5.90625L17.2971 4.45312C17.1924 4.34848 17.0682 4.26547 16.9315 4.20883C16.7948 4.1522 16.6482 4.12305 16.5002 4.12305C16.3522 4.12305 16.2057 4.1522 16.0689 4.20883C15.9322 4.26547 15.808 4.34848 15.7033 4.45312C15.492 4.66447 15.3733 4.95111 15.3733 5.25C15.3733 5.54888 15.492 5.83553 15.7033 6.04687L17.1565 7.5L15.7033 8.95312C15.5985 9.05764 15.5152 9.18183 15.4585 9.31858C15.4017 9.45532 15.3725 9.60193 15.3725 9.75C15.3725 9.89806 15.4017 10.0447 15.4585 10.1814C15.5152 10.3182 15.5985 10.4424 15.7033 10.5469C15.9156 10.7564 16.2019 10.8739 16.5002 10.8739C16.7985 10.8739 17.0848 10.7564 17.2971 10.5469L18.7502 9.09375L20.2033 10.5469C20.4156 10.7564 20.7019 10.8739 21.0002 10.8739C21.2985 10.8739 21.5848 10.7564 21.7971 10.5469C21.902 10.4424 21.9852 10.3182 22.042 10.1814C22.0987 10.0447 22.128 9.89806 22.128 9.75C22.128 9.60193 22.0987 9.45532 22.042 9.31858C21.9852 9.18183 21.902 9.05764 21.7971 8.95312L20.344 7.5ZM12.0002 17.25C11.7035 17.25 11.4135 17.338 11.1669 17.5028C10.9202 17.6676 10.7279 17.9019 10.6144 18.176C10.5009 18.4501 10.4712 18.7517 10.529 19.0426C10.5869 19.3336 10.7298 19.6009 10.9396 19.8107C11.1493 20.0204 11.4166 20.1633 11.7076 20.2212C11.9985 20.2791 12.3001 20.2493 12.5742 20.1358C12.8483 20.0223 13.0826 19.83 13.2474 19.5834C13.4122 19.3367 13.5002 19.0467 13.5002 18.75C13.5002 18.3522 13.3422 17.9706 13.0609 17.6893C12.7796 17.408 12.398 17.25 12.0002 17.25ZM12.694 6.39375C12.8417 6.40113 12.9894 6.37935 13.1288 6.32964C13.2681 6.27993 13.3962 6.20326 13.5059 6.10402C13.6156 6.00478 13.7047 5.8849 13.7681 5.75124C13.8314 5.61757 13.8678 5.47274 13.8752 5.325C13.8826 5.17726 13.8608 5.02952 13.8111 4.8902C13.7614 4.75088 13.6847 4.62272 13.5855 4.51303C13.4862 4.40334 13.3664 4.31427 13.2327 4.25091C13.099 4.18755 12.9542 4.15114 12.8065 4.14375L12.0002 4.125C8.09026 4.11102 4.33439 5.64844 1.55646 8.4C1.4512 8.50403 1.36746 8.62778 1.31002 8.76417C1.25258 8.90057 1.22257 9.04694 1.2217 9.19493C1.22083 9.34293 1.24912 9.48964 1.30495 9.6267C1.36078 9.76376 1.44306 9.88849 1.54709 9.99375C1.65112 10.099 1.77487 10.1828 1.91126 10.2402C2.04766 10.2976 2.19403 10.3276 2.34202 10.3285C2.49001 10.3294 2.63673 10.3011 2.77379 10.2453C2.91085 10.1894 3.03558 10.1072 3.14084 10.0031C5.4976 7.66919 8.68337 6.36455 12.0002 6.375L12.694 6.39375ZM12.6565 10.9031C12.9545 10.9265 13.2497 10.8313 13.478 10.6382C13.7062 10.4451 13.849 10.1697 13.8752 9.87187C13.8985 9.57482 13.803 9.28065 13.6097 9.05392C13.4164 8.82719 13.141 8.68642 12.844 8.6625C12.5627 8.63437 12.2815 8.625 12.0002 8.625C9.28505 8.61497 6.67628 9.68005 4.74396 11.5875C4.63813 11.69 4.55364 11.8124 4.49537 11.9477C4.4371 12.083 4.4062 12.2285 4.40446 12.3758C4.40272 12.5231 4.43016 12.6693 4.48522 12.8059C4.54027 12.9425 4.62184 13.0669 4.72521 13.1719C4.83061 13.2787 4.95613 13.3635 5.09453 13.4214C5.23292 13.4793 5.38143 13.5092 5.53146 13.5094C5.82573 13.5111 6.10878 13.3966 6.31896 13.1906C7.83357 11.7002 9.87531 10.8681 12.0002 10.875C12.2158 10.875 12.4408 10.8844 12.6565 10.9031Z" fill="#EA6C73"/>
</svg>