<svg xmlns="http://www.w3.org/2000/svg" width="20" height="20" viewBox="0 0 20 20" fill="none">
  <path d="M10 19C14.9706 19 19 14.9706 19 10C19 5.02944 14.9706 1 10 1C5.02944 1 1 5.02944 1 10C1 14.9706 5.02944 19 10 19Z" stroke="#0094FF" stroke-width="2" stroke-linecap="round" stroke-linejoin="round"/>
  <path d="M12.8 7C12.6188 6.68576 12.3557 6.4267 12.0386 6.25055C11.7215 6.0744 11.3625 5.9878 11 6H9C8.46957 6 7.96086 6.21071 7.58579 6.58579C7.21071 6.96086 7 7.46957 7 8C7 8.53043 7.21071 9.03914 7.58579 9.41421C7.96086 9.78929 8.46957 10 9 10H11C11.5304 10 12.0391 10.2107 12.4142 10.5858C12.7893 10.9609 13 11.4696 13 12C13 12.5304 12.7893 13.0391 12.4142 13.4142C12.0391 13.7893 11.5304 14 11 14H9C8.63749 14.0122 8.27849 13.9256 7.96142 13.7494C7.64435 13.5733 7.38115 13.3142 7.2 13M10 4V6M10 14V16" stroke="#0094FF" stroke-width="2" stroke-linecap="round" stroke-linejoin="round"/>
</svg>