<svg xmlns="http://www.w3.org/2000/svg" width="24" height="24" viewBox="0 0 24 24" fill="none">
  <path fill-rule="evenodd" clip-rule="evenodd" d="M2 5.75C2 5.05964 2.55964 4.5 3.25 4.5H20.75C21.4404 4.5 22 5.05964 22 5.75C22 6.44036 21.4404 7 20.75 7H3.25C2.55964 7 2 6.44036 2 5.75Z" fill="#0094FF"/>
  <path fill-rule="evenodd" clip-rule="evenodd" d="M2 12C2 11.3096 2.55964 10.75 3.25 10.75H15.75C16.4404 10.75 17 11.3096 17 12C17 12.6904 16.4404 13.25 15.75 13.25H3.25C2.55964 13.25 2 12.6904 2 12Z" fill="#0094FF"/>
  <path fill-rule="evenodd" clip-rule="evenodd" d="M2 18.25C2 17.5596 2.55964 17 3.25 17H10.75C11.4404 17 12 17.5596 12 18.25C12 18.9404 11.4404 19.5 10.75 19.5H3.25C2.55964 19.5 2 18.9404 2 18.25Z" fill="#0094FF"/>
</svg>