<svg xmlns="http://www.w3.org/2000/svg" width="24" height="24" viewBox="0 0 24 24" fill="none">
  <path fill-rule="evenodd" clip-rule="evenodd" d="M2 7C2 5.34315 3.34315 4 5 4H19C20.6569 4 22 5.34315 22 7V17C22 18.6569 20.6569 20 19 20H5C3.34315 20 2 18.6569 2 17V7ZM5 6C4.44772 6 4 6.44772 4 7V17C4 17.5523 4.44772 18 5 18H19C19.5523 18 20 17.5523 20 17V7C20 6.44772 19.5523 6 19 6H5Z" fill="#0094FF"/>
  <path fill-rule="evenodd" clip-rule="evenodd" d="M17.1253 10.1102L14.3574 13.0227C13.642 13.7755 12.4693 13.8555 11.6583 13.2067L10.6226 12.3781L7.75266 15.6587C7.38902 16.0744 6.75726 16.1165 6.34159 15.7529C5.92591 15.3893 5.88373 14.7575 6.24737 14.3418L9.11728 11.0612C9.82204 10.2556 11.0361 10.1477 11.872 10.8164L12.9077 11.6449L15.6756 8.73242L17.1253 10.1102Z" fill="#0094FF"/>
  <path d="M16.9724 7.96101C17.5352 7.95451 17.9926 8.41369 17.9838 8.97652L17.9499 11.1527C17.943 11.591 17.4156 11.809 17.1013 11.5034L14.3682 8.84551C14.0484 8.53455 14.265 7.99223 14.711 7.98709L16.9724 7.96101Z" fill="#0094FF"/>
</svg>