<svg width="24" height="24" viewBox="0 0 24 24" fill="none" xmlns="http://www.w3.org/2000/svg">
<path fill-rule="evenodd" clip-rule="evenodd" d="M13 18.2004C13 19.237 13.3286 20.1969 13.8874 20.9816C14.1988 21.4188 14.5816 21.8016 15.0188 22.113C15.8034 22.6717 16.7633 23.0004 17.8 23.0004C20.451 23.0004 22.6 20.8513 22.6 18.2004C22.6 17.1637 22.2714 16.2038 21.7126 15.4191C21.4012 14.9819 21.0184 14.5991 20.5812 14.2878C19.7966 13.729 18.8367 13.4004 17.8 13.4004C15.149 13.4004 13 15.5494 13 18.2004ZM17.8 21.4004C17.2066 21.4004 16.6508 21.2388 16.1744 20.9573L20.5569 16.5748C20.8385 17.0512 21 17.6069 21 18.2004C21 19.9677 19.5673 21.4004 17.8 21.4004ZM15.0431 19.8259L19.4256 15.4434C18.9492 15.1619 18.3934 15.0004 17.8 15.0004C16.0327 15.0004 14.6 16.4331 14.6 18.2004C14.6 18.7938 14.7615 19.3495 15.0431 19.8259Z" fill="#0094FF"/>
<path fill-rule="evenodd" clip-rule="evenodd" d="M10 3C8.34315 3 7 4.34315 7 6C7 7.65685 8.34315 9 10 9C11.6569 9 13 7.65685 13 6C13 4.34315 11.6569 3 10 3ZM5 6C5 3.23858 7.23858 1 10 1C12.7614 1 15 3.23858 15 6C15 8.76142 12.7614 11 10 11C7.23858 11 5 8.76142 5 6ZM10 14C7.23858 14 5 16.2386 5 19H3C3 15.134 6.13401 12 10 12C11.4118 12 12.7259 12.4179 13.8255 13.1368C13.3041 13.5658 12.871 14.0983 12.5578 14.7028C11.8094 14.2565 10.9347 14 10 14Z" fill="#0094FF"/>
</svg>
