<svg width="24" height="24" viewBox="0 0 24 24" fill="none" xmlns="http://www.w3.org/2000/svg">
<g id="allUsersA">
<g id="Group">
<g id="Group 15826">
<path id="Ellipse 108" d="M17.001 19.0833C17.001 16.3218 14.7624 14.0833 12.001 14.0833C9.23955 14.0833 7.00098 16.3218 7.00098 19.0833" stroke="white" stroke-width="2"/>
<ellipse id="Ellipse 109" cx="12.001" cy="8.24996" rx="3.33333" ry="3.33333" stroke="white" stroke-width="2"/>
</g>
<path id="Subtract" fill-rule="evenodd" clip-rule="evenodd" d="M17.8337 8.24992C17.8337 8.71724 17.7787 9.17172 17.6749 9.60726C17.7272 9.60044 17.7804 9.59692 17.8345 9.59692C18.5095 9.59692 19.0567 10.1441 19.0567 10.8191C19.0567 11.4942 18.5095 12.0414 17.8345 12.0414C17.4198 12.0414 17.0533 11.8348 16.8323 11.5189C16.551 11.934 16.2176 12.3109 15.8414 12.6402C17.1279 13.4088 18.1649 14.5518 18.802 15.9187C19.6073 16.2865 20.167 17.099 20.167 18.0422H22.167C22.167 16.0287 20.7936 14.3359 18.9325 13.8495C20.1715 13.4004 21.0567 12.2132 21.0567 10.8191C21.0567 9.03956 19.6141 7.59692 17.8345 7.59692L17.7975 7.59713C17.8214 7.81144 17.8337 8.02925 17.8337 8.24992ZM5.19886 15.9183C4.39305 16.286 3.83301 17.0987 3.83301 18.0422H1.83301C1.83301 16.0283 3.20686 14.3353 5.06848 13.8492C3.82987 13.4 2.94499 12.2129 2.94499 10.8191C2.94499 9.03956 4.38762 7.59692 6.16721 7.59692L6.20311 7.59712C6.17925 7.81143 6.16699 8.02924 6.16699 8.24992C6.16699 8.71718 6.22193 9.17161 6.3257 9.60711C6.27382 9.60039 6.22092 9.59692 6.16721 9.59692C5.49219 9.59692 4.94499 10.1441 4.94499 10.8191C4.94499 11.4942 5.49219 12.0414 6.16721 12.0414C6.58161 12.0414 6.94784 11.8351 7.16886 11.5197C7.45009 11.9344 7.78333 12.3111 8.1592 12.6402C6.87284 13.4087 5.83593 14.5516 5.19886 15.9183Z" fill="white"/>
</g>
</g>
</svg>
