<svg width="24" height="24" viewBox="0 0 24 24" fill="none" xmlns="http://www.w3.org/2000/svg">
<g id="User_Group">
<g id="Group">
<g id="Group 15826">
<path id="Ellipse 108" d="M17.001 19.0833C17.001 16.3219 14.7624 14.0833 12.001 14.0833C9.23955 14.0833 7.00098 16.3219 7.00098 19.0833" stroke="#0094FF" stroke-width="2"/>
<ellipse id="Ellipse 109" cx="12.001" cy="8.24999" rx="3.33333" ry="3.33333" stroke="#0094FF" stroke-width="2"/>
</g>
<path id="Subtract" fill-rule="evenodd" clip-rule="evenodd" d="M17.8337 8.24998C17.8337 8.7173 17.7787 9.17178 17.6749 9.60732C17.7272 9.60051 17.7804 9.59698 17.8345 9.59698C18.5095 9.59698 19.0567 10.1442 19.0567 10.8192C19.0567 11.4942 18.5095 12.0414 17.8345 12.0414C17.4198 12.0414 17.0533 11.8348 16.8323 11.519C16.551 11.934 16.2176 12.3109 15.8414 12.6403C17.1279 13.4089 18.1649 14.5518 18.802 15.9187C19.6073 16.2866 20.167 17.0991 20.167 18.0423H22.167C22.167 16.0287 20.7936 14.3359 18.9325 13.8495C20.1715 13.4005 21.0567 12.2132 21.0567 10.8192C21.0567 9.03962 19.6141 7.59698 17.8345 7.59698L17.7975 7.59719C17.8214 7.8115 17.8337 8.02931 17.8337 8.24998ZM5.19886 15.9184C4.39305 16.286 3.83301 17.0988 3.83301 18.0423H1.83301C1.83301 16.0284 3.20686 14.3353 5.06848 13.8492C3.82987 13.4 2.94499 12.213 2.94499 10.8192C2.94499 9.03962 4.38762 7.59698 6.16721 7.59698L6.20311 7.59718C6.17925 7.81149 6.16699 8.0293 6.16699 8.24998C6.16699 8.71724 6.22193 9.17167 6.3257 9.60717C6.27382 9.60045 6.22092 9.59698 6.16721 9.59698C5.49219 9.59698 4.94499 10.1442 4.94499 10.8192C4.94499 11.4942 5.49219 12.0414 6.16721 12.0414C6.58161 12.0414 6.94784 11.8352 7.16886 11.5198C7.45009 11.9345 7.78333 12.3111 8.1592 12.6403C6.87284 13.4088 5.83593 14.5516 5.19886 15.9184Z" fill="#0094FF"/>
</g>
</g>
</svg>
