<svg width="24" height="24" viewBox="0 0 24 24" fill="none" xmlns="http://www.w3.org/2000/svg">
<g id="&#208;&#162;&#209;&#128;&#208;&#176;&#208;&#189;&#209;&#129;&#209;&#132;&#208;&#181;&#209;&#128;&#209;&#139;">
<g id="Group">
<path id="Vector" d="M22.5012 10.5248C23.3289 10.5248 23.9998 9.85384 23.9998 9.02616C23.9998 8.49062 23.7189 8.02066 23.2962 7.75566L19.2686 3.72799C18.6834 3.14275 17.7345 3.14275 17.1493 3.72799C16.5639 4.31324 16.5639 5.26209 17.1493 5.84734L18.8295 7.5276L7.51517 7.5276C6.68751 7.5276 6.01657 8.19856 6.01657 9.02616C6.01657 9.85384 6.68751 10.5248 7.51517 10.5248L22.4271 10.5248C22.4407 10.5251 22.4545 10.5251 22.4681 10.5248H22.5012Z" fill="#0094FF"/>
<path id="Vector_2" d="M1.49875 13.4751C0.671092 13.4751 0.000152588 14.1462 0.000152588 14.9737C0.000152588 15.5093 0.281111 15.9793 0.703686 16.2444L4.73136 20.272C5.31661 20.8572 6.26546 20.8572 6.85071 20.272C7.43595 19.6868 7.43595 18.7379 6.85071 18.1527L5.17044 16.4723L16.4848 16.4723C17.3125 16.4723 17.9834 15.8014 17.9834 14.9737C17.9834 14.1462 17.3125 13.4751 16.4848 13.4751L1.57286 13.4751C1.55918 13.4749 1.54551 13.4749 1.53184 13.4751H1.49875Z" fill="#0094FF"/>
</g>
</g>
</svg>
