<svg width="24" height="24" viewBox="0 0 24 24" fill="none" xmlns="http://www.w3.org/2000/svg">
<g id="pie-chart-svgrepo-com 2">
<g id="Group">
<g id="Group_2">
<path id="Vector" d="M10.7091 17.2571C8.42324 16.6766 6.72922 14.5892 6.72922 12.1023C6.72922 11.7483 6.76596 11.4024 6.83127 11.0648L2.48807 8.9856C2.17375 9.9655 1.99823 11.0154 1.99823 12.1023C1.99823 17.2324 5.79445 21.465 10.7091 22.1031V17.2571Z" fill="#0094FF"/>
<path id="Vector_2" d="M13.2882 6.94789C15.5741 7.52842 17.2681 9.61586 17.2681 12.1027C17.2681 14.5895 15.5741 16.6769 13.2882 17.2575L13.2882 22.1035C18.2029 21.4653 21.9991 17.2328 21.9991 12.1027C21.9991 6.9726 18.2029 2.74007 13.2882 2.1019V6.94789Z" fill="#0094FF"/>
<path id="Vector_3" d="M7.93742 8.71419C8.63952 7.8578 9.60695 7.22786 10.7091 6.94789V2.1019C7.72516 2.48892 5.15761 4.20169 3.5983 6.63498L7.93742 8.71419Z" fill="#0094FF"/>
</g>
</g>
</g>
</svg>
