<svg width="24" height="24" viewBox="0 0 24 24" fill="none" xmlns="http://www.w3.org/2000/svg">
<g id="royaltyStatisticsA">
<g id="Group">
<g id="Group_2">
<path id="Vector" d="M10.7091 17.2571C8.42324 16.6766 6.72922 14.5892 6.72922 12.1023C6.72922 11.7483 6.76596 11.4024 6.83127 11.0648L2.48807 8.9856C2.17375 9.9655 1.99823 11.0154 1.99823 12.1023C1.99823 17.2324 5.79445 21.465 10.7091 22.1031V17.2571Z" fill="white"/>
<path id="Vector_2" d="M13.2882 6.9478C15.5741 7.52833 17.2681 9.61577 17.2681 12.1026C17.2681 14.5894 15.5741 16.6768 13.2882 17.2574L13.2882 22.1034C18.2029 21.4652 21.9991 17.2327 21.9991 12.1026C21.9991 6.9725 18.2029 2.73998 13.2882 2.10181V6.9478Z" fill="white"/>
<path id="Vector_3" d="M7.93742 8.7141C8.63952 7.85771 9.60695 7.22777 10.7091 6.9478V2.10181C7.72516 2.48883 5.15761 4.2016 3.5983 6.63489L7.93742 8.7141Z" fill="white"/>
</g>
</g>
</g>
</svg>
