<svg width="24" height="24" viewBox="0 0 24 24" fill="none" xmlns="http://www.w3.org/2000/svg">
<g id="&#208;&#157;&#208;&#176;&#209;&#135;&#208;&#184;&#209;&#129;&#208;&#187;&#208;&#184;&#209;&#130;&#209;&#140; &#208;&#184;&#208;&#187;&#208;&#184; &#209;&#129;&#208;&#191;&#208;&#184;&#209;&#129;&#208;&#176;&#209;&#130;&#209;&#140; &#209;&#129;&#209;&#128;&#208;&#181;&#208;&#180;&#209;&#129;&#209;&#130;&#208;&#178;&#208;&#176;">
<g id="Union">
<path d="M15.0723 2.48363C13.3 1.91145 11.403 1.84558 9.59526 2.29346C7.78749 2.74133 6.14071 3.68515 4.84047 5.01856C3.54023 6.35198 2.63819 8.02201 2.236 9.84049C2.20781 9.96793 2.20102 10.0951 2.21324 10.2183H0.555943C0.244615 10.2183 0 10.474 0 10.7798C0 10.891 0.0333566 11.0022 0.10007 11.0911L2.66852 14.8104C2.77415 14.9605 2.94094 15.0495 3.1244 15.0495C3.30786 15.0495 3.4802 14.9605 3.58027 14.8104L6.14317 11.0911C6.25991 10.9244 6.27103 10.702 6.17652 10.5185C6.08201 10.3351 5.89299 10.2183 5.68173 10.2183L4.61184 10.2183C4.93197 8.89079 5.60416 7.67308 6.55877 6.69411C7.54695 5.68072 8.7985 4.96342 10.1724 4.62303C11.5463 4.28265 12.988 4.33271 14.335 4.76757C15.682 5.20243 16.8807 6.00481 17.7963 7.0843C18.2249 7.58975 18.9822 7.65199 19.4876 7.22333C19.9931 6.79466 20.0553 6.03742 19.6266 5.53197C18.422 4.11158 16.8447 3.05582 15.0723 2.48363Z" fill="#0094FF"/>
<path d="M23.8999 12.9089L21.3426 9.17852C21.237 9.02842 21.0702 8.93947 20.8867 8.93947C20.7033 8.93947 20.5309 9.02842 20.4308 9.17852L17.868 12.8978C17.6956 13.1535 17.7568 13.4982 18.0125 13.6761C18.107 13.7372 18.2126 13.7762 18.3238 13.7762H19.3895C19.07 15.1059 18.3972 16.3256 17.4413 17.3059C16.4531 18.3193 15.2015 19.0366 13.8276 19.377C12.4537 19.7174 11.0121 19.6673 9.66508 19.2325C8.31809 18.7976 7.1193 17.9952 6.20379 16.9157C5.77513 16.4103 5.01788 16.348 4.51243 16.7767C4.00699 17.2054 3.94475 17.9626 4.37341 18.4681C5.57803 19.8885 7.15538 20.9442 8.92773 21.5164C10.7001 22.0886 12.597 22.1545 14.4048 21.7066C16.2126 21.2587 17.8593 20.3149 19.1596 18.9815C20.4598 17.6481 21.3619 15.978 21.764 14.1595C21.7922 14.0321 21.799 13.9049 21.7868 13.7817H23.4441C23.7554 13.7817 24 13.526 24 13.2202C24 13.109 23.9666 12.9978 23.8999 12.9089Z" fill="#0094FF"/>
<path d="M11.4992 17.0417C11.5515 17.0939 11.6187 17.1201 11.7008 17.1201H12.6304C12.7051 17.1201 12.7686 17.0939 12.8208 17.0417C12.8806 16.9894 12.9104 16.9222 12.9104 16.8401V16.0561C13.4406 15.9889 13.9035 15.8507 14.2992 15.6417C14.695 15.4326 15.0011 15.1601 15.2176 14.8241C15.4416 14.4881 15.5536 14.0998 15.5536 13.6593C15.5536 13.2038 15.4566 12.8267 15.2624 12.5281C15.0683 12.2219 14.7622 11.9755 14.344 11.7889C13.9259 11.5947 13.3771 11.4342 12.6976 11.3073C12.287 11.2177 11.9622 11.1318 11.7232 11.0497C11.4843 10.9675 11.3126 10.8705 11.208 10.7585C11.111 10.6465 11.0624 10.5158 11.0624 10.3665C11.0624 10.1275 11.1558 9.95205 11.3424 9.84005C11.5291 9.72059 11.783 9.66085 12.104 9.66085C12.4102 9.66085 12.6603 9.72432 12.8544 9.85125C13.0486 9.97072 13.168 10.1126 13.2128 10.2769C13.2576 10.3441 13.3099 10.3926 13.3696 10.4225C13.4294 10.4523 13.5003 10.4673 13.5824 10.4673H15.0608C15.128 10.4673 15.184 10.4449 15.2288 10.4001C15.2736 10.3478 15.296 10.2918 15.296 10.2321C15.2886 9.96325 15.1915 9.68325 15.0048 9.39205C14.8256 9.10085 14.5606 8.83952 14.2096 8.60805C13.8587 8.37658 13.4256 8.21605 12.9104 8.12645L12.9104 7.32005C12.9104 7.23792 12.8806 7.17072 12.8208 7.11845C12.7686 7.06618 12.7051 7.04005 12.6304 7.04005H11.7008C11.6187 7.04005 11.5515 7.06618 11.4992 7.11845C11.447 7.17072 11.4208 7.23792 11.4208 7.32005L11.4208 8.10405C10.6667 8.20858 10.0731 8.46992 9.64002 8.88805C9.21442 9.30619 9.00162 9.81392 9.00162 10.4113C9.00162 10.8742 9.10615 11.2625 9.31522 11.5761C9.52428 11.8822 9.82669 12.1323 10.2224 12.3265C10.6256 12.5131 11.111 12.6662 11.6784 12.7857C12.119 12.8753 12.4699 12.9649 12.7312 13.0545C13 13.1366 13.1942 13.2337 13.3136 13.3457C13.4331 13.4502 13.4928 13.5846 13.4928 13.7489C13.4928 13.9803 13.3808 14.1633 13.1568 14.2977C12.9403 14.4321 12.6155 14.4993 12.1824 14.4993C11.9211 14.4993 11.7008 14.4694 11.5216 14.4097C11.3499 14.3425 11.208 14.2566 11.096 14.1521C10.9915 14.0475 10.9094 13.9393 10.8496 13.8273C10.7974 13.7675 10.7451 13.719 10.6928 13.6817C10.6406 13.6443 10.5622 13.6257 10.4576 13.6257H9.04642C8.97922 13.6257 8.91948 13.6518 8.86722 13.7041C8.82242 13.7489 8.80002 13.8011 8.80002 13.8609C8.81495 14.2043 8.91948 14.5329 9.11362 14.8465C9.30775 15.1526 9.59522 15.4139 9.97602 15.6305C10.3643 15.847 10.8459 15.9926 11.4208 16.0673V16.8401C11.4208 16.9222 11.447 16.9894 11.4992 17.0417Z" fill="#0094FF"/>
</g>
</g>
</svg>
