<svg width="24" height="24" viewBox="0 0 24 24" fill="none" xmlns="http://www.w3.org/2000/svg">
<g id="transfersA" clip-path="url(#clip0_1_2975)">
<g id="Group">
<path id="Vector" d="M1.49879 10.5248C0.671122 10.5248 0.000183105 9.85384 0.000183105 9.02616C0.000183105 8.49062 0.281141 8.02066 0.703717 7.75566L4.73139 3.72799C5.31664 3.14275 6.2655 3.14275 6.85074 3.72799C7.43598 4.31324 7.43598 5.26209 6.85074 5.84734L5.17047 7.5276L16.4848 7.5276C17.3125 7.5276 17.9834 8.19856 17.9834 9.02616C17.9834 9.85384 17.3125 10.5248 16.4848 10.5248L1.57289 10.5248C1.55921 10.5251 1.54554 10.5251 1.53187 10.5248H1.49879Z" fill="white"/>
<path id="Vector_2" d="M22.5013 13.4751C23.329 13.4751 23.9999 14.1462 23.9999 14.9737C23.9999 15.5093 23.7189 15.9793 23.2963 16.2444L19.2686 20.272C18.6834 20.8572 17.7345 20.8572 17.1493 20.272C16.564 19.6868 16.564 18.7379 17.1493 18.1527L18.8295 16.4723L7.5152 16.4723C6.68754 16.4723 6.0166 15.8014 6.0166 14.9737C6.0166 14.1462 6.68754 13.4751 7.5152 13.4751L22.4271 13.4751C22.4407 13.4749 22.4545 13.4749 22.4682 13.4751H22.5013Z" fill="white"/>
</g>
</g>
<defs>
<clipPath id="clip0_1_2975">
<rect width="24" height="24" fill="white"/>
</clipPath>
</defs>
</svg>
