<svg width="24" height="24" viewBox="0 0 24 24" fill="none" xmlns="http://www.w3.org/2000/svg">
<g id="&#208;&#162;&#209;&#128;&#208;&#176;&#208;&#189;&#209;&#129;&#209;&#132;&#208;&#181;&#209;&#128;&#209;&#139;">
<g id="Group">
<path id="Vector" d="M1.49875 10.5248C0.671092 10.5248 0.000152588 9.85384 0.000152588 9.02616C0.000152588 8.49062 0.281111 8.02066 0.703686 7.75566L4.73136 3.72799C5.31661 3.14275 6.26546 3.14275 6.85071 3.72799C7.43595 4.31324 7.43595 5.26209 6.85071 5.84734L5.17044 7.5276L16.4848 7.5276C17.3125 7.5276 17.9834 8.19856 17.9834 9.02616C17.9834 9.85384 17.3125 10.5248 16.4848 10.5248L1.57286 10.5248C1.55918 10.5251 1.54551 10.5251 1.53184 10.5248H1.49875Z" fill="#0094FF"/>
<path id="Vector_2" d="M22.5012 13.4751C23.3289 13.4751 23.9998 14.1462 23.9998 14.9737C23.9998 15.5093 23.7189 15.9793 23.2962 16.2444L19.2686 20.272C18.6834 20.8572 17.7345 20.8572 17.1493 20.272C16.5639 19.6868 16.5639 18.7379 17.1493 18.1527L18.8295 16.4723L7.51517 16.4723C6.68751 16.4723 6.01657 15.8014 6.01657 14.9737C6.01657 14.1462 6.68751 13.4751 7.51517 13.4751L22.4271 13.4751C22.4407 13.4749 22.4545 13.4749 22.4681 13.4751H22.5012Z" fill="#0094FF"/>
</g>
</g>
</svg>
